<svg xmlns="http://www.w3.org/2000/svg" width="200" height="200" viewBox="0 0 200 200">
  <rect width="200" height="200" rx="44" ry="44" fill="#1B7A6E"/>
  <rect x="82" y="44" width="36" height="52" rx="6" fill="white"/>
  <rect x="82" y="44" width="14" height="52" rx="4" fill="rgba(255,255,255,0.12)"/>
  <path d="M 68 94 L 52 148 Q 50 158 60 158 L 140 158 Q 150 158 148 148 L 132 94 Z" fill="white"/>
  <path d="M 76 128 L 64 158 Q 62 158 60 158 Q 50 158 52 148 L 62 118 Z" fill="#A8D8D2"/>
  <path d="M 62 118 L 76 128 L 88 124 L 100 130 L 112 122 L 124 128 L 136 120 L 148 148 Q 150 158 140 158 L 60 158 Q 50 158 52 148 L 64 118 Z" fill="#4AADA0"/>
  <circle cx="80" cy="145" r="4" fill="rgba(255,255,255,0.5)"/>
  <circle cx="96" cy="138" r="3" fill="rgba(255,255,255,0.4)"/>
  <circle cx="115" cy="146" r="5" fill="rgba(255,255,255,0.35)"/>
  <rect x="78" y="40" width="44" height="12" rx="6" fill="white"/>
</svg>
